<?xml version="1.0" standalone="no"?>
<!DOCTYPE svg PUBLIC "-//W3C//DTD SVG 20010904//EN"
 "http://www.w3.org/TR/2001/REC-SVG-20010904/DTD/svg10.dtd">
<svg version="1.0" xmlns="http://www.w3.org/2000/svg"
 width="32.000000pt" height="32.000000pt" viewBox="0 0 32.000000 32.000000"
 preserveAspectRatio="xMidYMid meet">

<g transform="translate(0.000000,32.000000) scale(0.100000,-0.100000)"
fill="#000000" stroke="none">
<path d="M80 301 c-16 -31 -12 -86 8 -104 16 -15 20 -15 40 -1 16 11 22 25 22
54 0 60 -47 94 -70 51z"/>
<path d="M186 304 c-25 -24 -21 -90 6 -108 20 -14 24 -14 40 1 31 28 18 123
-17 123 -7 0 -21 -7 -29 -16z"/>
<path d="M10 200 c-16 -30 13 -80 45 -80 21 0 25 5 25 28 0 32 -25 72 -45 72
-8 0 -19 -9 -25 -20z"/>
<path d="M256 198 c-9 -12 -16 -35 -16 -50 0 -41 44 -39 65 2 28 54 -16 96
-49 48z"/>
<path d="M101 113 c-35 -42 -47 -74 -37 -99 5 -13 14 -15 44 -9 20 4 48 7 62
6 99 -7 95 -8 98 20 2 17 -8 41 -30 70 -27 36 -41 45 -70 47 -31 3 -40 -2 -67
-35z"/>
</g>
</svg>
